<svg width="29" height="29" viewBox="0 0 29 29" fill="none" xmlns="http://www.w3.org/2000/svg">
<g clip-path="url(#clip0_1111_119)">
<path fill-rule="evenodd" clip-rule="evenodd" d="M8.45833 3.625C7.17645 3.625 5.94708 4.13422 5.04065 5.04065C4.13422 5.94708 3.625 7.17645 3.625 8.45833V20.5417C3.625 21.8235 4.13422 23.0529 5.04065 23.9593C5.94708 24.8658 7.17645 25.375 8.45833 25.375H20.5417C21.8235 25.375 23.0529 24.8658 23.9593 23.9593C24.8658 23.0529 25.375 21.8235 25.375 20.5417V8.45833C25.375 7.17645 24.8658 5.94708 23.9593 5.04065C23.0529 4.13422 21.8235 3.625 20.5417 3.625H8.45833ZM20.9428 12.1498C21.1207 11.8832 21.1854 11.5568 21.1226 11.2425C21.0598 10.9282 20.8748 10.6517 20.6081 10.4738C20.3415 10.296 20.0151 10.2313 19.7008 10.2941C19.3865 10.3569 19.11 10.5419 18.9322 10.8085C18.5044 11.3765 18.0561 11.9202 17.5317 12.4035C16.9239 12.9642 16.3089 13.3847 15.7095 13.6336L15.6999 11.3378C15.6652 11.0439 15.524 10.7729 15.3028 10.5762C15.0816 10.3795 14.796 10.2709 14.5 10.2708C13.8451 10.3083 13.2917 10.7916 13.2917 11.4792V16.7632C10.9378 16.1107 9.66667 13.827 9.66667 11.4792C9.66667 11.1587 9.53936 10.8514 9.31275 10.6247C9.08615 10.3981 8.7788 10.2708 8.45833 10.2708C8.13786 10.2708 7.83052 10.3981 7.60391 10.6247C7.37731 10.8514 7.25 11.1587 7.25 11.4792C7.25 15.8678 10.2829 19.3333 14.5 19.3333C14.8205 19.3333 15.1278 19.206 15.3544 18.9794C15.581 18.7528 15.7083 18.4455 15.7083 18.125V16.2364C17.3178 16.3645 18.879 17.5015 19.4614 18.6651C19.5293 18.812 19.626 18.9438 19.7457 19.0526C19.8655 19.1615 20.0059 19.2451 20.1586 19.2987C20.3113 19.3522 20.4732 19.3745 20.6347 19.3643C20.7962 19.3541 20.954 19.3115 21.0988 19.2392C21.2435 19.1668 21.3722 19.0661 21.4773 18.943C21.5824 18.82 21.6617 18.677 21.7105 18.5227C21.7593 18.3685 21.7766 18.2059 21.7614 18.0448C21.7461 17.8837 21.6987 17.7273 21.6219 17.5849C21.0443 16.4285 19.9665 15.347 18.6398 14.6414C18.8186 14.4952 18.9962 14.3405 19.1714 14.1798C19.8371 13.5727 20.4315 12.8916 20.9428 12.1498Z" fill="#F5F5F5"/>
</g>
<defs>
<clipPath id="clip0_1111_119">
<rect width="29" height="29" fill="white"/>
</clipPath>
</defs>
</svg>
