<svg width="39" height="37" viewBox="0 0 39 37" fill="none" xmlns="http://www.w3.org/2000/svg">
<path d="M35.8434 10.7068C35.6492 10.0224 35.269 9.39831 34.7407 8.8971C34.2124 8.3959 33.5546 8.03512 32.8331 7.85089C30.1763 7.1687 19.5 7.1687 19.5 7.1687C19.5 7.1687 8.82375 7.1687 6.16688 7.85089C5.44543 8.03512 4.78763 8.3959 4.25933 8.8971C3.73103 9.39831 3.35076 10.0224 3.15656 10.7068C2.66047 13.2775 2.41972 15.8866 2.4375 18.5C2.41972 21.1133 2.66047 23.7224 3.15656 26.2931C3.35076 26.9775 3.73103 27.6016 4.25933 28.1028C4.78763 28.604 5.44543 28.9648 6.16688 29.149C8.82375 29.8312 19.5 29.8312 19.5 29.8312C19.5 29.8312 30.1763 29.8312 32.8331 29.149C33.5546 28.9648 34.2124 28.604 34.7407 28.1028C35.269 27.6016 35.6492 26.9775 35.8434 26.2931C36.3395 23.7224 36.5803 21.1133 36.5625 18.5C36.5803 15.8866 36.3395 13.2775 35.8434 10.7068ZM16.0875 23.3562V13.6437L24.9478 18.5L16.0875 23.3562Z" fill="#F5F5F5"/>
</svg>
